<?xml version="1.0" encoding="utf-8"?>
<!-- Generator: Adobe Illustrator 16.2.1, SVG Export Plug-In . SVG Version: 6.00 Build 0)  -->
<!DOCTYPE svg PUBLIC "-//W3C//DTD SVG 1.1//EN" "http://www.w3.org/Graphics/SVG/1.1/DTD/svg11.dtd">
<svg version="1.1" id="Layer_1" xmlns="http://www.w3.org/2000/svg" xmlns:xlink="http://www.w3.org/1999/xlink" x="0px" y="0px"
	 width="193px" height="83px" viewBox="0 0 193 83" enable-background="new 0 0 193 83" xml:space="preserve">
<g id="front">
	<path fill="#2C3E50" d="M52.1,37.438h-4.44v5.7h17.22v-5.7h-5.16V18.239h6.9v-5.7h-6.9v-1.56c0-4.439,3.42-4.8,5.16-4.8
		c1.56,0,2.34,0.181,2.34,0.181V0.24c0,0-1.32-0.24-3.12-0.24C60.02,0,52.1,1.26,52.1,11.16v1.38h-4.74v5.7h4.74V37.438z"/>
	<path fill="#2C3E50" d="M104.059,27.839c0-9.359-7.5-16.02-16.86-16.02c-9.3,0-16.799,6.66-16.799,16.02
		c0,9.42,7.5,16.02,16.859,16.02C96.559,43.858,104.059,37.259,104.059,27.839z M78.139,27.839c0-5.64,4.14-9.54,9.12-9.54
		c4.92,0,9.06,3.9,9.06,9.54c0,5.7-4.14,9.54-9.06,9.54C82.279,37.379,78.139,33.539,78.139,27.839z"/>
	<path fill="#2C3E50" d="M120.619,19.979h-0.121c0,0,0.121-0.78,0.121-1.92v-1.8c0-2.58-1.381-3.72-4.08-3.72h-7.98v5.7h3.42
		c0.84,0,1.32,0.48,1.32,1.32v17.879h-4.439v5.7h16.439v-5.7h-4.381v-6.66c0-5.759,2.76-11.16,8.939-11.16
		c1.08,0,1.861,0.12,1.861,0.12v-7.5c0,0-0.66-0.12-1.381-0.12C125.658,12.12,121.998,15.6,120.619,19.979z"/>
	<path fill="#2C3E50" d="M146.299,31.139V18.239h6.959v-5.7h-6.959V4.2h-7.381v8.339h-4.92v5.7h4.68v13.68
		c0,10.26,8.461,11.52,12.781,11.52c1.379,0,2.34-0.18,2.34-0.18v-6.24c0,0-0.541,0.06-1.381,0.06
		C150.258,37.079,146.299,36.359,146.299,31.139z"/>
	<path fill="#2C3E50" d="M176.957,12.54v5.7h3.541l-5.52,15.479c-0.602,1.5-0.84,3.18-0.84,3.18h-0.182c0,0-0.119-1.68-0.658-3.18
		l-5.58-15.479h3.6v-5.7h-15.061v5.7h3.66l10.5,25.799l-0.84,1.92c-0.961,2.221-2.939,3.54-5.4,3.54c-2.818,0-4.619-1.44-4.619-1.44
		l-2.461,5.58c0,0,3,2.101,7.441,2.101c5.219,0,9.779-2.58,12.119-8.64l11.279-28.859h3.48v-5.7H176.957z"/>
	<path fill="#2C3E50" d="M14.299,69.139V56.239h6.96V50.54h-6.96V42.2H6.92v8.34H2v5.699h4.68v13.68
		c0,10.26,8.459,11.52,12.779,11.52c1.38,0,2.34-0.18,2.34-0.18v-6.24c0,0-0.54,0.061-1.38,0.061
		C18.259,75.079,14.299,74.358,14.299,69.139z"/>
	<path fill="#2C3E50" d="M60.258,56.239h3.72l-4.08,14.939c-0.36,1.5-0.48,3.3-0.48,3.3h-0.18c0,0-0.12-1.8-0.48-3.3l-5.7-20.579
		h-6.72l-5.76,20.579c-0.36,1.5-0.48,3.3-0.48,3.3h-0.18c0,0-0.12-1.8-0.48-3.3l-4.02-14.939h3.66V50.54h-14.7v5.699h3.72
		l7.08,24.899h8.64l5.22-17.939c0.42-1.56,0.54-3.36,0.54-3.36h0.18c0,0,0.12,1.801,0.54,3.36l5.28,17.939h8.64l7.08-24.899h3.659
		V50.54H60.258V56.239z"/>
	<path fill="#2C3E50" d="M94.279,49.819c-9.3,0-16.8,6.66-16.8,16.02c0,9.42,7.5,16.02,16.859,16.02c9.3,0,16.8-6.6,16.8-16.02
		C111.139,56.479,103.639,49.819,94.279,49.819z M94.338,75.379c-4.979,0-9.119-3.84-9.119-9.54c0-5.64,4.14-9.539,9.119-9.539
		c4.919,0,9.06,3.899,9.06,9.539C103.398,71.539,99.258,75.379,94.338,75.379z"/>
</g>
<g id="back">
	<path fill="#27B899" d="M50.1,38.438h-4.44v5.7h17.22v-5.7h-5.16V19.239h6.9v-5.7h-6.9v-1.56c0-4.439,3.42-4.8,5.16-4.8
		c1.56,0,2.34,0.181,2.34,0.181V1.24c0,0-1.32-0.24-3.12-0.24C58.02,1,50.1,2.26,50.1,12.16v1.38h-4.74v5.7h4.74V38.438z"/>
	<path fill="#27B899" d="M102.059,28.839c0-9.359-7.5-16.02-16.86-16.02c-9.3,0-16.799,6.66-16.799,16.02
		c0,9.42,7.5,16.02,16.859,16.02C94.559,44.858,102.059,38.259,102.059,28.839z M76.139,28.839c0-5.64,4.14-9.54,9.12-9.54
		c4.92,0,9.06,3.9,9.06,9.54c0,5.7-4.14,9.54-9.06,9.54C80.279,38.379,76.139,34.539,76.139,28.839z"/>
	<path fill="#27B899" d="M118.619,20.979h-0.121c0,0,0.121-0.78,0.121-1.92v-1.8c0-2.58-1.381-3.72-4.08-3.72h-7.98v5.7h3.42
		c0.84,0,1.32,0.48,1.32,1.32v17.879h-4.439v5.7h16.439v-5.7h-4.381v-6.66c0-5.759,2.76-11.16,8.939-11.16
		c1.08,0,1.861,0.12,1.861,0.12v-7.5c0,0-0.66-0.12-1.381-0.12C123.658,13.12,119.998,16.6,118.619,20.979z"/>
	<path fill="#27B899" d="M144.299,32.139V19.239h6.959v-5.7h-6.959V5.2h-7.381v8.339h-4.92v5.7h4.68v13.68
		c0,10.26,8.461,11.52,12.781,11.52c1.379,0,2.34-0.18,2.34-0.18v-6.24c0,0-0.541,0.06-1.381,0.06
		C148.258,38.079,144.299,37.359,144.299,32.139z"/>
	<path fill="#27B899" d="M174.957,13.54v5.7h3.541l-5.52,15.479c-0.602,1.5-0.84,3.18-0.84,3.18h-0.182c0,0-0.119-1.68-0.658-3.18
		l-5.58-15.479h3.6v-5.7h-15.061v5.7h3.66l10.5,25.799l-0.84,1.92c-0.961,2.221-2.939,3.54-5.4,3.54c-2.818,0-4.619-1.44-4.619-1.44
		l-2.461,5.58c0,0,3,2.101,7.441,2.101c5.219,0,9.779-2.58,12.119-8.64l11.279-28.859h3.48v-5.7H174.957z"/>
	<path fill="#27B899" d="M12.299,70.139V57.239h6.96V51.54h-6.96V43.2H4.92v8.34H0v5.699h4.68v13.68
		c0,10.26,8.459,11.52,12.779,11.52c1.38,0,2.34-0.18,2.34-0.18v-6.24c0,0-0.54,0.061-1.38,0.061
		C16.259,76.079,12.299,75.358,12.299,70.139z"/>
	<path fill="#27B899" d="M58.258,57.239h3.72l-4.08,14.939c-0.36,1.5-0.48,3.3-0.48,3.3h-0.18c0,0-0.12-1.8-0.48-3.3l-5.7-20.579
		h-6.72l-5.76,20.579c-0.36,1.5-0.48,3.3-0.48,3.3h-0.18c0,0-0.12-1.8-0.48-3.3l-4.02-14.939h3.66V51.54h-14.7v5.699h3.72
		l7.08,24.899h8.64l5.22-17.939c0.42-1.56,0.54-3.36,0.54-3.36h0.18c0,0,0.12,1.801,0.54,3.36l5.28,17.939h8.64l7.08-24.899h3.659
		V51.54H58.258V57.239z"/>
	<path fill="#27B899" d="M92.279,50.819c-9.3,0-16.8,6.66-16.8,16.02c0,9.42,7.5,16.02,16.859,16.02c9.3,0,16.8-6.6,16.8-16.02
		C109.139,57.479,101.639,50.819,92.279,50.819z M92.338,76.379c-4.979,0-9.119-3.84-9.119-9.54c0-5.64,4.14-9.539,9.119-9.539
		c4.919,0,9.06,3.899,9.06,9.539C101.398,72.539,97.258,76.379,92.338,76.379z"/>
</g>
</svg>
