<?xml version="1.0" encoding="utf-8"?>
<!-- Generator: Adobe Illustrator 15.1.0, SVG Export Plug-In . SVG Version: 6.00 Build 0)  -->
<!DOCTYPE svg PUBLIC "-//W3C//DTD SVG 1.1//EN" "http://www.w3.org/Graphics/SVG/1.1/DTD/svg11.dtd">
<svg version="1.1" id="Layer_1" xmlns="http://www.w3.org/2000/svg" xmlns:xlink="http://www.w3.org/1999/xlink" x="0px" y="0px"
	 width="400px" height="100px" viewBox="0 0 400 100" enable-background="new 0 0 400 100" xml:space="preserve">
<g>
	<path fill="#FFFFFF" d="M0,18.679c0-0.562,0.373-0.928,0.932-0.928h15.893c0.56,0,0.937,0.365,0.937,0.928v21.693
		c0,0.365,0.187,0.555,0.56,0.555h4.673c0.373,0,0.563-0.189,0.563-0.555V18.679c0-0.562,0.373-0.928,0.933-0.928h15.893
		c0.56,0,0.933,0.365,0.933,0.928v61.698c0,0.563-0.373,0.929-0.933,0.929H24.489c-0.56,0-0.933-0.365-0.933-0.929V57.192
		c0-0.373-0.19-0.562-0.563-0.562H18.32c-0.373,0-0.56,0.189-0.56,0.562v23.185c0,0.563-0.377,0.929-0.937,0.929H0.932
		C0.373,81.306,0,80.94,0,80.377V18.679z"/>
	<path fill="#FFFFFF" d="M46.852,71.304c-0.933-2.892-1.4-5.792-1.4-12.894c0-7.108,0.468-10.001,1.4-12.901
		c2.245-6.918,7.854-10.938,16.92-10.938c9.069,0,14.679,4.02,16.92,10.938c0.937,2.9,1.404,5.328,1.404,16.829
		c0,0.556-0.377,0.929-0.936,0.929H62.648c-0.372,0-0.559,0.19-0.559,0.563c0,2.71,0.095,3.182,0.281,3.737
		c0.277,0.936,1.123,1.309,1.964,1.309c1.214,0,2.055-0.746,2.614-2.245c0.19-0.563,0.563-0.837,1.123-0.746l12.806,2.618
		c0.563,0.092,0.75,0.563,0.654,1.127c-1.682,8.502-8.601,12.619-17.761,12.619C54.706,82.249,49.097,78.223,46.852,71.304z
		 M66.576,53.083c0-3.654-0.091-4.4-0.281-4.963c-0.278-0.929-0.933-1.4-1.96-1.4c-1.031,0-1.687,0.472-1.964,1.4
		c-0.187,0.562-0.281,1.309-0.281,4.963c0,0.365,0.187,0.562,0.559,0.562h3.368C66.39,53.646,66.576,53.448,66.576,53.083z"/>
	<path fill="#FFFFFF" d="M106.886,81.868c-12.429,0-18.225-2.801-18.225-17.475V48.219c0-0.373-0.187-0.556-0.563-0.556h-3.083
		c-0.563,0-0.936-0.381-0.936-0.943V36.444c0-0.563,0.372-0.944,0.936-0.944h3.083c0.377,0,0.563-0.183,0.563-0.556V23.353
		c0-0.563,0.372-0.929,0.932-0.929h14.957c0.562,0,0.936,0.365,0.936,0.929v11.592c0,0.373,0.187,0.556,0.56,0.556h4.769
		c0.56,0,0.937,0.381,0.937,0.944V46.72c0,0.562-0.377,0.943-0.937,0.943h-4.769c-0.373,0-0.56,0.183-0.56,0.556v15.048
		c0,3.455,1.31,4.399,3.833,4.399h1.495c0.56,0,0.937,0.365,0.937,0.929V80.94c0,0.556-0.377,0.928-0.937,0.928H106.886z"/>
	<path fill="#FFFFFF" d="M134.211,18.679c0-0.562,0.373-0.928,0.933-0.928h31.876c0.563,0,0.937,0.365,0.937,0.928v13.838
		c0,0.563-0.373,0.929-0.937,0.929h-14.488c-0.373,0-0.56,0.19-0.56,0.563v7.764c0,0.365,0.187,0.555,0.56,0.555h12.338
		c0.563,0,0.937,0.373,0.937,0.937v13.838c0,0.563-0.373,0.929-0.937,0.929h-12.338c-0.373,0-0.56,0.189-0.56,0.562v21.784
		c0,0.563-0.376,0.929-0.936,0.929h-15.893c-0.56,0-0.933-0.365-0.933-0.929V18.679z"/>
	<path fill="#FFFFFF" d="M170.498,71.304c-0.933-2.892-1.4-5.792-1.4-12.894c0-7.108,0.468-10.001,1.4-12.901
		c2.245-6.918,7.854-10.938,16.92-10.938c9.069,0,14.679,4.02,16.92,10.938c0.937,2.9,1.404,5.328,1.404,16.829
		c0,0.556-0.377,0.929-0.936,0.929h-18.511c-0.373,0-0.56,0.19-0.56,0.563c0,2.71,0.095,3.182,0.281,3.737
		c0.278,0.936,1.123,1.309,1.964,1.309c1.214,0,2.055-0.746,2.614-2.245c0.19-0.563,0.563-0.837,1.123-0.746l12.806,2.618
		c0.563,0.092,0.75,0.563,0.655,1.127c-1.683,8.502-8.602,12.619-17.762,12.619C178.353,82.249,172.743,78.223,170.498,71.304z
		 M190.223,53.083c0-3.654-0.091-4.4-0.281-4.963c-0.278-0.929-0.933-1.4-1.96-1.4c-1.031,0-1.686,0.472-1.964,1.4
		c-0.187,0.562-0.281,1.309-0.281,4.963c0,0.365,0.187,0.562,0.56,0.562h3.367C190.036,53.646,190.223,53.448,190.223,53.083z"/>
	<path fill="#FFFFFF" d="M208.193,69.439c0-0.563,0.187-0.937,0.746-1.027l12.9-1.964c0.56-0.092,1.028,0.183,1.119,0.746
		c0.19,2.146,1.123,3.182,2.714,3.182c1.495,0,2.241-0.846,2.241-2.154c0-1.5-0.746-1.964-2.805-2.52l-3.642-1.035
		c-9.069-2.52-12.528-7.565-12.528-14.949c0-9.544,5.796-15.146,17.106-15.146c10.188,0,15.983,4.766,16.547,11.874
		c0.091,0.655,0,0.929-0.468,1.021l-12.152,1.963c-0.376,0.1-0.749-0.091-0.749-0.464c-0.187-1.591-0.841-2.52-2.523-2.52
		c-1.495,0-2.15,0.837-2.15,1.865c0,1.027,0.75,1.499,2.9,2.153l3.642,1.027c9.256,2.611,12.528,7.193,12.528,14.957
		c0,10.473-6.45,15.801-17.856,15.801C214.735,82.249,208.657,77.478,208.193,69.439z"/>
	<path fill="#FFFFFF" d="M268.406,81.868c-12.429,0-18.225-2.801-18.225-17.475V48.219c0-0.373-0.187-0.556-0.563-0.556h-3.083
		c-0.562,0-0.936-0.381-0.936-0.943V36.444c0-0.563,0.373-0.944,0.936-0.944h3.083c0.377,0,0.563-0.183,0.563-0.556V23.353
		c0-0.563,0.373-0.929,0.932-0.929h14.957c0.562,0,0.936,0.365,0.936,0.929v11.592c0,0.373,0.187,0.556,0.56,0.556h4.769
		c0.56,0,0.937,0.381,0.937,0.944V46.72c0,0.562-0.377,0.943-0.937,0.943h-4.769c-0.373,0-0.56,0.183-0.56,0.556v15.048
		c0,3.455,1.31,4.399,3.833,4.399h1.495c0.56,0,0.937,0.365,0.937,0.929V80.94c0,0.556-0.377,0.928-0.937,0.928H268.406z"/>
	<path fill="#FFFFFF" d="M278.24,31.208c-0.559,0-0.932-0.381-0.932-0.937V18.679c0-0.562,0.373-0.928,0.932-0.928h14.957
		c0.562,0,0.936,0.365,0.936,0.928v11.593c0,0.556-0.373,0.937-0.936,0.937H278.24z M278.24,81.306
		c-0.559,0-0.932-0.365-0.932-0.929V36.444c0-0.563,0.373-0.944,0.932-0.944h14.957c0.562,0,0.936,0.381,0.936,0.944v43.933
		c0,0.563-0.373,0.929-0.936,0.929H278.24z"/>
	<path fill="#FFFFFF" d="M308.819,81.306c-0.655,0-0.937-0.274-1.123-0.929l-10.655-43.933c-0.187-0.563,0.091-0.944,0.654-0.944
		h14.488c0.654,0,0.936,0.381,1.027,0.944l3.459,24.295h0.092l3.463-24.295c0.092-0.563,0.373-0.944,1.027-0.944h14.021
		c0.563,0,0.837,0.381,0.654,0.944l-10.564,43.933c-0.183,0.654-0.464,0.929-1.118,0.929H308.819z"/>
	<path fill="#FFFFFF" d="M358.381,81.306c-0.563,0-0.937-0.365-0.937-0.929v-2.245h-0.091c-1.401,2.618-4.674,4.117-8.692,4.117
		c-5.982,0-10.938-3.744-10.938-13.929c0-11.782,8.129-14.675,15.42-14.675h3.745c0.373,0,0.556-0.197,0.556-0.562v-1.69
		c0-2.237-1.21-3.364-5.138-3.364c-3.272,0-5.891,1.035-7.573,2.154c-0.654,0.465-1.218,0.373-1.4-0.19l-4.209-10.564
		c-0.183-0.556-0.183-1.119,0.472-1.491c3.737-2.146,9.065-3.365,15.329-3.365c14.111,0,18.321,5.892,18.321,16.821v28.984
		c0,0.563-0.373,0.929-0.937,0.929H358.381z M357.444,66.821V63.83c0-0.373-0.183-0.563-0.556-0.563h-1.309
		c-2.246,0-3.273,1.4-3.273,3.745c0,2.237,0.837,3.364,2.52,3.364C356.417,70.376,357.444,69.341,357.444,66.821z"/>
	<path fill="#FFFFFF" d="M395.98,81.868c-12.147,0-18.039-3.927-18.039-18.693V18.679c0-0.562,0.373-0.928,0.937-0.928h15.139
		c0.563,0,0.937,0.365,0.937,0.928v44.314c0,3.265,1.31,4.673,3.555,4.673h0.563c0.556,0,0.929,0.464,0.929,1.02V80.94
		c0,0.556-0.373,0.928-0.929,0.928H395.98z"/>
</g>
</svg>
